<?xml version="1.0" encoding="UTF-8" standalone="no" ?>
<!DOCTYPE svg PUBLIC "-//W3C//DTD SVG 1.1//EN" "http://www.w3.org/Graphics/SVG/1.1/DTD/svg11.dtd">
<svg xmlns="http://www.w3.org/2000/svg" xmlns:xlink="http://www.w3.org/1999/xlink" version="1.1" width="500" height="500" viewBox="0 0 500 500" xml:space="preserve">
<desc>Created with Fabric.js 4.6.0</desc>
<defs>
</defs>
<g transform="matrix(0.71 0.71 -0.71 0.71 248.35 246.67)" id="63i1K3iMv9hvWtDCQBb5D"  >
<path style="stroke: rgb(255,255,255); stroke-width: 3; stroke-dasharray: none; stroke-linecap: butt; stroke-dashoffset: 0; stroke-linejoin: miter; stroke-miterlimit: 4; fill: rgb(255,255,255); fill-rule: nonzero; opacity: 1;" vector-effect="non-scaling-stroke"  transform=" translate(-108.06, -161.9)" d="M 161.57137 73.1383 C 134.35999 71.95333 93.41977 72.80585 54.5235 73.1383 C 70.14544 20.2896 107.03567 0.007930000000001769 107.0501 0 C 107.06716 0.00689 144.95278 15.30558 161.57137 73.1383 z M 55.85128 216.09175 C 35.239580000000004 160.24068 50.361920000000005 84.44280999999998 50.361920000000005 84.44280999999998 L 80.12706 84.44280999999998 C 74.38565 91.03424999999999 70.90751 99.64798999999998 70.90751 109.06915999999998 C 70.90751 129.78017 87.71644 146.58909999999997 108.42745 146.58909999999997 C 129.13846 146.58909999999997 145.94738999999998 129.78016999999997 145.94738999999998 109.06915999999998 C 145.94738999999998 99.64798999999998 142.46925 91.03424999999999 136.72784 84.44280999999998 L 165.72893 84.44280999999998 C 165.72893 84.44280999999998 180.39516 161.90292 160.23957 216.09175 C 144.73825 215.7593 142.28742999999997 217.42154 55.85127999999999 216.09175 z M 108.63745 83.40879 C 123.05037 83.40879 134.74782 95.10623 134.74782 109.51916 C 134.74782 123.93208 123.05037999999999 135.62953 108.63744999999999 135.62953 C 94.22452999999999 135.62953 82.52707999999998 123.93208999999999 82.52707999999998 109.51915999999999 C 82.52707999999998 95.10623999999999 94.22451999999998 83.40878999999998 108.63744999999999 83.40878999999998 z M 146.94148 218.08819 L 105.05318000000001 323.80628 L 67.81914 217.4233 z M 92.11414 219.44894 L 106.31462 260.02174 L 122.29016 219.70252000000002 z M 44.54787 168.22117 L 51.19681 209.44457 L 26.21276 216.01932 C 26.71585 221.28133 27.08308 226.85632999999999 27.26064 232.71585 C 14.627659999999999 232.71585 14.627659999999999 232.71585 0 232.71585 C 1.32979 192.15733999999998 13.96277 160.90733999999998 13.96277 160.90733999999998 C 13.96277 160.90733999999998 17.96122 170.23704999999998 21.592640000000003 186.58534999999998 z M 194.84117 186.8666 L 194.73542 187.53129 C 198.56515000000002 170.78255000000001 202.81627 160.2666 202.81627 160.2666 C 202.81627 160.2666 214.78436 188.19213000000002 216.11414 232.07511 C 203.48116 232.07511 203.48116 232.07511 188.8535 232.07511 C 189.03476 226.54658999999998 189.42604 221.19101999999998 189.96672 216.06398 L 164.92094 209.47297999999998 L 171.56988 168.24957999999998 z" stroke-linecap="round" />
</g>
</svg>